<mxfile host="app.diagrams.net" modified="2024-03-18T04:07:10.808Z" agent="Mozilla/5.0 (Windows NT 10.0; Win64; x64; rv:123.0) Gecko/20100101 Firefox/123.0" version="24.0.7" etag="NQKH_I8r7X0OtHvPKis3" type="github">
  <diagram name="Page-1" id="Mp8JvafAYhQE2_nURcRO">
    <mxGraphModel>
      <root>
        <mxCell id="0" />
        <mxCell id="1" parent="0" />
      </root>
    </mxGraphModel>
  </diagram>
</mxfile>
